<?xml version="1.0" standalone="no"?>
<!DOCTYPE svg PUBLIC "-//W3C//DTD SVG 20010904//EN"
 "http://www.w3.org/TR/2001/REC-SVG-20010904/DTD/svg10.dtd">
<svg version="1.0" xmlns="http://www.w3.org/2000/svg"
 width="600.000000pt" height="600.000000pt" viewBox="0 0 600.000000 600.000000"
 preserveAspectRatio="xMidYMid meet">
<metadata>
Created by potrace 1.14, written by Peter Selinger 2001-2017
</metadata>
<g transform="translate(0.000000,600.000000) scale(0.100000,-0.100000)"
fill="#000000" stroke="none">
<path d="M2735 5990 c-241 -25 -456 -70 -680 -145 -452 -150 -840 -390 -1175
-725 -729 -729 -1031 -1774 -805 -2785 235 -1048 1039 -1905 2074 -2210 150
-44 262 -69 441 -96 210 -33 610 -33 820 0 494 76 893 231 1285 499 625 427
1071 1086 1234 1827 51 230 65 367 65 645 0 285 -14 417 -70 665 -134 603
-472 1173 -938 1581 -457 401 -992 645 -1597 729 -135 19 -525 28 -654 15z
m515 -1820 c0 -5 20 -10 44 -10 25 0 47 -4 50 -9 3 -4 25 -11 49 -14 42 -6
146 -54 178 -83 8 -8 20 -14 25 -14 6 0 30 -20 54 -45 24 -25 50 -45 57 -45 8
0 17 -10 22 -22 5 -13 23 -36 40 -52 17 -17 31 -35 31 -42 0 -6 7 -17 15 -24
8 -7 29 -42 46 -79 17 -36 34 -73 39 -81 4 -9 11 -44 15 -78 4 -34 11 -65 16
-68 11 -7 12 -221 0 -228 -4 -3 -11 -31 -14 -62 -3 -31 -11 -62 -16 -67 -6 -6
-11 -18 -11 -27 0 -22 -57 -135 -75 -150 -8 -7 -15 -18 -15 -24 0 -15 -169
-186 -184 -186 -6 0 -23 -12 -39 -25 -33 -29 -30 -61 9 -89 13 -11 24 -24 24
-31 0 -7 7 -18 15 -25 20 -16 75 -98 75 -111 0 -5 3 -9 8 -9 4 0 16 -15 27
-32 11 -18 28 -44 37 -58 10 -14 22 -34 27 -45 5 -12 16 -27 25 -34 9 -7 16
-18 16 -23 0 -5 11 -19 25 -32 14 -13 25 -27 25 -32 0 -13 73 -84 87 -84 7 0
13 -4 13 -10 0 -5 21 -10 47 -10 42 0 52 -5 90 -42 40 -40 43 -45 43 -98 0
-51 -4 -60 -38 -98 l-38 -42 -102 0 c-100 0 -132 7 -187 42 -30 20 -125 115
-125 126 0 5 -7 15 -15 22 -17 14 -75 97 -75 107 0 3 -15 24 -33 47 -19 23
-37 48 -40 56 -16 34 -95 142 -109 148 -5 2 -8 9 -8 16 0 7 -11 23 -25 36 -14
13 -25 29 -25 35 0 7 -9 20 -20 30 -11 10 -20 23 -20 28 0 5 -14 24 -32 40
-26 25 -42 31 -87 35 -75 5 -155 44 -176 84 -33 66 -9 162 50 199 11 7 55 15
98 17 42 3 80 9 83 13 3 5 16 9 29 9 13 0 27 5 30 10 3 6 14 10 24 10 18 0 91
45 126 77 11 11 28 22 38 26 9 4 20 15 24 24 4 10 14 25 23 33 26 24 68 104
86 167 12 42 15 81 12 152 -4 83 -9 105 -39 166 -36 75 -107 173 -125 174 -6
1 -19 10 -28 20 -26 29 -133 81 -166 81 -16 0 -32 5 -35 10 -4 6 -141 10 -380
10 -331 0 -374 -2 -379 -16 -3 -9 -6 -451 -6 -984 l0 -968 -42 -41 c-40 -39
-44 -41 -106 -41 -64 0 -66 1 -104 42 l-38 41 0 1081 0 1080 42 43 c23 24 48
43 55 43 7 0 13 5 13 10 0 7 165 10 475 10 310 0 475 -3 475 -10z"/>
</g>
</svg>
